# xmcd CD database file
#
# Track frame offsets:
#	150
#	26865
#	54535
#	73722
#	101187
#	118417
#	145262
#	173607
#	192810
#	205115
#	222052
#	246830
#
# Disc length: 3662 seconds
#
# Revision: 2
# Processed by: cddbd v1.5.1PL0 Copyright (c) Steve Scherf et al.
# Submitted via: CDex 1.40Beta9
#
DISCID=b60e4c0c
DTITLE=Kenny Wayne Shepherd - Ledbetter Heights
DYEAR=1995
DGENRE=Blues
TTITLE0=Born With A Broken Heart
TTITLE1=Deja Voodoo
TTITLE2=Aberdeen
TTITLE3=Shame, Shame, Shame
TTITLE4=One Foot On The Path
TTITLE5=Everybody Gets The Blues
TTITLE6=While We Cry (Live)
TTITLE7=I'm Leaving You (Commit A Crime)
TTITLE8=(Let Me Up) I've Had Enough
TTITLE9=Riverside
TTITLE10=What's Goin' Down
TTITLE11=Ledbetter Heights
EXTD=YEAR: 1995 ID3G: 0
EXTT0=
EXTT1=
EXTT2=
EXTT3=
EXTT4=
EXTT5=
EXTT6=
EXTT7=
EXTT8=
EXTT9=
EXTT10=
EXTT11=
PLAYORDER=
